# xmcd
#
# Track frame offsets:
#	150
#	13687
#	25250
#	36772
#	54402
#	70757
#	85810
#	100590
#	114250
#	125585
#	141112
#	159677
#
# Disc length: 2421 seconds
#
# Revision: 1
# Processed by: cddbd v1.5.1PL0 Copyright (c) Steve Scherf et al.
# Submitted via: audiograbber 1.83.01
#
DISCID=9409730c
DTITLE=Scooter Lee - Scooter Lee's New Album
DYEAR=1996
DGENRE=Country
TTITLE0=Don't Walk Away With My Heart
TTITLE1=Last Time Uh Huh
TTITLE2=Heartbreak Hotel
TTITLE3=Can't Help It
TTITLE4=No Options Here
TTITLE5=Baby Once I Get You
TTITLE6=Losing My Mind
TTITLE7=The Way Things Are
TTITLE8=Daniels Boys
TTITLE9=Commit Me For Hangin On
TTITLE10=Last Time Uh Huh
TTITLE11=Baby Once I Get You
EXTD=
EXTT0=
EXTT1=
EXTT2=
EXTT3=
EXTT4=
EXTT5=
EXTT6=
EXTT7=
EXTT8=
EXTT9=
EXTT10=
EXTT11=
PLAYORDER=
